<svg width="64" height="64" viewBox="0 0 64 64" fill="none" xmlns="http://www.w3.org/2000/svg">
<path d="M54.9128 24.6978H8.51279C8.01279 24.6978 7.81279 23.9978 8.21279 23.7978L30.7128 10.2978C31.0284 10.1031 31.3919 10 31.7628 10C32.1336 10 32.4972 10.1031 32.8128 10.2978L55.3128 23.7978C55.6128 23.9978 55.4128 24.6978 54.9128 24.6978Z" fill="#DDDDDD"/>
<path d="M51.713 24.6978H11.713V26.6978C11.7041 26.8314 11.724 26.9654 11.7711 27.0907C11.8182 27.216 11.8916 27.3299 11.9863 27.4245C12.0809 27.5192 12.1948 27.5926 12.3201 27.6397C12.4454 27.6868 12.5794 27.7067 12.713 27.6978H50.713C50.8466 27.7067 50.9806 27.6868 51.1059 27.6397C51.2312 27.5926 51.345 27.5192 51.4397 27.4245C51.5344 27.3299 51.6078 27.216 51.6549 27.0907C51.702 26.9654 51.7218 26.8314 51.713 26.6978V24.6978Z" fill="#11B2EA"/>
<path d="M50.713 46.6978H12.713C12.5794 46.689 12.4454 46.7088 12.3201 46.7559C12.1948 46.803 12.0809 46.8764 11.9863 46.9711C11.8916 47.0657 11.8182 47.1796 11.7711 47.3049C11.724 47.4302 11.7041 47.5642 11.713 47.6978V49.6978H51.713V47.6978C51.7218 47.5642 51.702 47.4302 51.6549 47.3049C51.6078 47.1796 51.5344 47.0657 51.4397 46.9711C51.345 46.8764 51.2312 46.803 51.1059 46.7559C50.9806 46.7088 50.8466 46.689 50.713 46.6978Z" fill="#11B2EA"/>
<path d="M53.713 49.6978H9.71299C9.57938 49.689 9.44542 49.7088 9.32009 49.7559C9.19476 49.803 9.08094 49.8764 8.98626 49.9711C8.89158 50.0657 8.81821 50.1796 8.77109 50.3049C8.72396 50.4302 8.70415 50.5642 8.71299 50.6978V53.6978H54.713V50.6978C54.7218 50.5642 54.702 50.4302 54.6549 50.3049C54.6078 50.1796 54.5344 50.0657 54.4397 49.9711C54.345 49.8764 54.2312 49.803 54.1059 49.7559C53.9806 49.7088 53.8466 49.689 53.713 49.6978Z" fill="#DDDDDD"/>
<path d="M35.713 29.6978V27.6978H27.713V29.6978C27.7041 29.8314 27.724 29.9654 27.7711 30.0907C27.8182 30.216 27.8916 30.3299 27.9863 30.4245C28.0809 30.5192 28.1948 30.5926 28.3201 30.6397C28.4454 30.6868 28.5794 30.7067 28.713 30.6978V43.6978C28.5794 43.689 28.4454 43.7088 28.3201 43.7559C28.1948 43.803 28.0809 43.8764 27.9863 43.9711C27.8916 44.0658 27.8182 44.1796 27.7711 44.3049C27.724 44.4303 27.7041 44.5642 27.713 44.6978V46.6978H35.713V44.6978C35.7218 44.5642 35.702 44.4303 35.6549 44.3049C35.6078 44.1796 35.5344 44.0658 35.4397 43.9711C35.345 43.8764 35.2312 43.803 35.1059 43.7559C34.9806 43.7088 34.8466 43.689 34.713 43.6978V30.6978C34.8466 30.7067 34.9806 30.6868 35.1059 30.6397C35.2312 30.5926 35.345 30.5192 35.4397 30.4245C35.5344 30.3299 35.6078 30.216 35.6549 30.0907C35.702 29.9654 35.7218 29.8314 35.713 29.6978Z" fill="#DDDDDD"/>
<path d="M22.713 29.6978V27.6978H14.713V29.6978C14.7041 29.8314 14.724 29.9654 14.7711 30.0907C14.8182 30.216 14.8916 30.3299 14.9863 30.4245C15.0809 30.5192 15.1948 30.5926 15.3201 30.6397C15.4454 30.6868 15.5794 30.7067 15.713 30.6978V43.6978C15.5794 43.689 15.4454 43.7088 15.3201 43.7559C15.1948 43.803 15.0809 43.8764 14.9863 43.9711C14.8916 44.0658 14.8182 44.1796 14.7711 44.3049C14.724 44.4303 14.7041 44.5642 14.713 44.6978V46.6978H22.713V44.6978C22.7218 44.5642 22.702 44.4303 22.6549 44.3049C22.6078 44.1796 22.5344 44.0658 22.4397 43.9711C22.345 43.8764 22.2312 43.803 22.1059 43.7559C21.9806 43.7088 21.8466 43.689 21.713 43.6978V30.6978C21.8466 30.7067 21.9806 30.6868 22.1059 30.6397C22.2312 30.5926 22.345 30.5192 22.4397 30.4245C22.5344 30.3299 22.6078 30.216 22.6549 30.0907C22.702 29.9654 22.7218 29.8314 22.713 29.6978Z" fill="#DDDDDD"/>
<path d="M48.713 29.6978V27.6978H40.713V29.6978C40.7041 29.8314 40.724 29.9654 40.7711 30.0907C40.8182 30.216 40.8916 30.3299 40.9863 30.4245C41.0809 30.5192 41.1948 30.5926 41.3201 30.6397C41.4454 30.6868 41.5794 30.7067 41.713 30.6978V43.6978C41.5794 43.689 41.4454 43.7088 41.3201 43.7559C41.1948 43.803 41.0809 43.8764 40.9863 43.9711C40.8916 44.0658 40.8182 44.1796 40.7711 44.3049C40.724 44.4303 40.7041 44.5642 40.713 44.6978V46.6978H48.713V44.6978C48.7218 44.5642 48.702 44.4303 48.6549 44.3049C48.6078 44.1796 48.5344 44.0658 48.4397 43.9711C48.345 43.8764 48.2312 43.803 48.1059 43.7559C47.9806 43.7088 47.8466 43.689 47.713 43.6978V30.6978C47.8466 30.7067 47.9806 30.6868 48.1059 30.6397C48.2312 30.5926 48.345 30.5192 48.4397 30.4245C48.5344 30.3299 48.6078 30.216 48.6549 30.0907C48.702 29.9654 48.7218 29.8314 48.713 29.6978Z" fill="#DDDDDD"/>
</svg>
