<svg width="64" height="64" viewBox="0 0 64 64" fill="none" xmlns="http://www.w3.org/2000/svg">
<path d="M13.7599 43.5553H23.3157V49.2888C23.3157 50.3443 22.4601 51.2 21.4046 51.2H15.6711C14.6155 51.2 13.7599 50.3443 13.7599 49.2888V43.5553Z" fill="#999999"/>
<path d="M40.632 43.5553H50.1879V49.2888C50.1879 50.3443 49.3322 51.2 48.2767 51.2H42.5432C41.4877 51.2 40.632 50.3443 40.632 49.2888V43.5553Z" fill="#999999"/>
<path d="M49.9465 29.2215H53.2911C54.6105 29.2215 55.6801 28.1519 55.6801 26.8325C55.6801 25.5131 54.6105 24.4435 53.2911 24.4435H10.2897C8.97033 24.4435 7.90076 25.5131 7.90076 26.8325C7.90076 28.1519 8.97033 29.2215 10.2897 29.2215H49.9465Z" fill="#DDDDDD"/>
<path d="M47.1083 17.42C46.9582 16.6453 46.6017 15.9256 46.0763 15.3368C45.9611 15.1978 45.8331 15.0698 45.6941 14.9546C44.9733 14.2966 44.0326 13.9319 43.0567 13.9321H20.5239C18.5149 13.9811 16.8195 15.4406 16.4722 17.42L13.6342 29.2215H14.5897L31.7903 31.1327L49.9464 29.2215L47.1083 17.42Z" fill="#11B2EA"/>
<path d="M45.6941 14.9546C39.4923 15.3177 14.5897 17.506 14.5897 29.2215H13.6342L16.4722 17.42C16.8195 15.4406 18.5149 13.9811 20.5239 13.9321H43.0566C44.0326 13.9319 44.9733 14.2966 45.6941 14.9546Z" fill="#009CD8"/>
<path d="M49.9465 30.1771C49.5049 30.177 49.121 29.8744 49.0176 29.4451L46.1815 17.6436C45.9356 16.096 44.6267 14.9402 43.0605 14.8877H20.5202C18.9642 14.9364 17.6599 16.0789 17.4069 17.615L14.564 29.4451C14.4405 29.9586 13.9241 30.2748 13.4106 30.1513C12.8971 30.0278 12.5809 29.5114 12.7044 28.9979L15.5454 17.1964C15.9846 14.7831 18.0675 13.0163 20.5202 12.9766H43.0605C45.5246 13.018 47.6142 14.7988 48.0458 17.2251L50.8763 28.9979C50.9448 29.2827 50.879 29.5832 50.6976 29.8132C50.5162 30.0432 50.2394 30.1773 49.9465 30.1771Z" fill="#DDDDDD"/>
<path d="M13.6343 29.2216H49.9465C52.0576 29.2216 53.7689 30.9329 53.7689 33.0439V43.5553C53.7689 44.6109 52.9132 45.4665 51.8577 45.4665H11.7231C10.6676 45.4665 9.81192 44.6109 9.81192 43.5553V33.0439C9.81192 30.9329 11.5232 29.2216 13.6343 29.2216Z" fill="#DDDDDD"/>
<path d="M16.9546 41.6441H18.8658C19.3936 41.6441 19.8214 42.0719 19.8214 42.5997V45.4664H15.9991V42.5997C15.9991 42.0719 16.4269 41.6441 16.9546 41.6441Z" fill="#D6B36A"/>
<path d="M44.9465 41.6441H46.8577C47.3854 41.6441 47.8133 42.0719 47.8133 42.5997V45.4664H43.9909V42.5997C43.9909 42.0719 44.4187 41.6441 44.9465 41.6441Z" fill="#D6B36A"/>
<path d="M36.5683 37.8218H27.0125C26.4847 37.8218 26.0569 38.2496 26.0569 38.7774V40.6885C26.0569 41.2163 26.4847 41.6441 27.0125 41.6441H36.5683C37.0961 41.6441 37.5239 41.2163 37.5239 40.6885V38.7774C37.5239 38.2496 37.0961 37.8218 36.5683 37.8218Z" fill="#999999"/>
<path d="M14.7155 33.0438H19.4934C21.0767 33.0438 22.3602 34.3273 22.3602 35.9106V36.8662C22.3602 37.3939 21.9323 37.8218 21.4046 37.8218H14.7155C14.1877 37.8218 13.7599 37.3939 13.7599 36.8662V33.9994C13.7599 33.4717 14.1877 33.0438 14.7155 33.0438Z" fill="white"/>
<path d="M49.1938 37.8218H42.5047C41.9769 37.8218 41.5491 37.3939 41.5491 36.8662V35.9106C41.5491 34.3273 42.8326 33.0439 44.4159 33.0439H49.1938C49.7216 33.0439 50.1494 33.4717 50.1494 33.9994V36.8662C50.1494 37.3939 49.7216 37.8218 49.1938 37.8218Z" fill="white"/>
</svg>
