<svg width="64" height="64" viewBox="0 0 64 64" fill="none" xmlns="http://www.w3.org/2000/svg">
<path d="M55.9948 41.9298C55.9948 46.4971 55.2501 50.2039 54.34 50.2039C48.7871 49.3165 43.1816 48.7968 37.5602 48.6484L35.5082 47.672C36.6516 45.6415 36.2244 43.0885 34.4822 41.5409C34.4574 38.7939 35.7399 36.4441 35.2186 35.2774C41.6231 35.1979 48.0136 34.6559 54.34 33.6557C55.2501 33.6557 55.9948 37.3625 55.9948 41.9298Z" fill="#DDDDDD"/>
<path d="M20.4164 22.1215L8.55961 17.8852C8.23239 17.7664 8.0145 17.4556 8.0145 17.1075C8.0145 16.7593 8.23239 16.4485 8.55961 16.3297L31.7105 8.05562C31.8979 7.98944 32.1023 7.98944 32.2897 8.05562L55.4405 16.3297C55.7677 16.4485 55.9856 16.7593 55.9856 17.1075C55.9856 17.4556 55.7677 17.7664 55.4405 17.8852L50.1451 19.78L47.8532 20.5991L43.5838 22.1215H20.4164Z" fill="#009CD8"/>
<path d="M9.7759 50.1797L9.66006 50.2045C9.70006 50.2051 9.73967 50.1966 9.7759 50.1797Z" fill="#F8E8AB"/>
<path d="M9.75935 33.6723C9.72598 33.6686 9.69284 33.663 9.66006 33.6557C9.69371 33.6572 9.72705 33.6627 9.75935 33.6723Z" fill="#F8E8AB"/>
<path d="M9.76758 33.6722C15.723 34.6107 21.7359 35.1387 27.7637 35.2526C28.3098 36.4606 30.3452 39.0007 30.3452 41.9297C30.3452 42.1283 30.3452 42.3186 30.3369 42.5089C29.315 44.0603 29.2448 46.0524 30.1549 47.6719L28.1112 48.5986C21.9705 48.706 15.8444 49.234 9.77585 50.179L9.76758 33.6722Z" fill="#DDDDDD"/>
<path d="M28.6822 42.5091C28.6904 42.3188 28.6904 42.1285 28.6904 41.93C28.782 39.6668 28.4682 37.4055 27.7637 35.2528C29.1207 35.2941 30.5355 35.3107 32.0001 35.3107C33.1005 35.3107 34.1761 35.3024 35.2187 35.2776C35.8866 37.296 36.1947 39.4161 36.1288 41.5411L28.6822 42.5091Z" fill="#46AC3B"/>
<path d="M32.8275 50.2038L30.6266 55.4744C30.5042 55.787 30.2052 55.9946 29.8696 56C29.534 56.0055 29.2283 55.8076 29.0959 55.4992L28.4919 54.1092L27.1018 54.7049C26.7961 54.839 26.4396 54.7747 26.2 54.5423C25.9603 54.3099 25.8851 53.9556 26.0097 53.6459L28.1113 48.5987L28.5002 47.672L32.8275 50.2038Z" fill="#46AC3B"/>
<path d="M37.1548 47.672L37.5602 48.6483L39.6453 53.6459C39.7699 53.9556 39.6946 54.3099 39.455 54.5423C39.2153 54.7747 38.8588 54.839 38.5531 54.7049L37.163 54.1092L36.559 55.4992C36.4266 55.8076 36.121 56.0055 35.7854 56C35.4498 55.9946 35.1507 55.787 35.0283 55.4744L32.8274 50.2038L37.1548 47.672Z" fill="#46AC3B"/>
<path d="M20.4164 27.8643V18.7628C20.4164 17.3893 25.6042 16.2806 32.0001 16.2806C38.3959 16.2806 43.5838 17.3893 43.5838 18.7628V27.8643H20.4164Z" fill="#11B2EA"/>
<path d="M49.3756 20.4173C48.9187 20.4173 48.5482 20.0468 48.5482 19.5899V14.1621C48.5482 13.7051 48.9187 13.3347 49.3756 13.3347C49.8326 13.3347 50.203 13.7051 50.203 14.1621V19.5899C50.203 20.0468 49.8326 20.4173 49.3756 20.4173Z" fill="#D6B36A"/>
<path d="M47.7209 21.2445V23.7267C47.7209 24.1837 48.0913 24.5541 48.5483 24.5541H50.2031C50.66 24.5541 51.0305 24.1837 51.0305 23.7267V21.2445C51.0305 20.3305 50.2896 19.5897 49.3757 19.5897C48.4617 19.5897 47.7209 20.3305 47.7209 21.2445Z" fill="#D6B36A"/>
<path d="M32.0001 30.3463C38.3976 30.3463 43.5838 29.235 43.5838 27.8641C43.5838 26.4932 38.3976 25.3819 32.0001 25.3819C25.6026 25.3819 20.4164 26.4932 20.4164 27.8641C20.4164 29.235 25.6026 30.3463 32.0001 30.3463Z" fill="#009CD8"/>
<path d="M11.3148 41.93C11.3148 46.2987 10.6363 49.8814 9.77584 50.1793C9.73961 50.1962 9.7 50.2047 9.66 50.2041C8.74985 50.2041 8.00519 46.4973 8.00519 41.93C8.00519 37.3627 8.74985 33.656 9.66 33.656C9.6691 33.6549 9.67821 33.6579 9.68482 33.6642C9.70137 33.6642 9.7262 33.6725 9.75929 33.6725H9.76757C10.6281 33.9621 11.3148 37.5448 11.3148 41.93Z" fill="#999999"/>
<path d="M37.7919 45.2392C37.7919 47.981 35.5693 50.2036 32.8275 50.2036C30.0857 50.2036 27.863 47.981 27.863 45.2392C27.863 42.4974 30.0857 40.2747 32.8275 40.2747C34.0478 40.2676 35.2262 40.7195 36.1288 41.5407C37.1878 42.4781 37.7935 43.8249 37.7919 45.2392Z" fill="#D6B36A"/>
</svg>
