<svg width="64" height="64" viewBox="0 0 64 64" fill="none" xmlns="http://www.w3.org/2000/svg">
<path d="M14.8862 11.4423V18.4744H8V11.4423C8 9.54135 9.54135 8 11.4438 8C12.3942 8 13.2548 8.38606 13.8781 9.008C14.5015 9.63128 14.8862 10.4919 14.8862 11.4423Z" fill="#009CD8"/>
<path d="M14.449 11.096V50H49V17.4207V11.096C49 10.2412 48.6147 9.46717 47.9901 8.90659C47.3655 8.34722 46.5034 8 45.551 8H11C11.9523 8 12.8145 8.34722 13.4391 8.90659C14.0635 9.46717 14.449 10.2412 14.449 11.096Z" fill="#DDDDDD"/>
<path d="M33.3225 19.8358H19.3493C19.0658 19.8358 18.8359 19.6142 18.8359 19.3409V13.3307C18.8359 13.0574 19.0658 12.8358 19.3493 12.8358H33.3226C33.6061 12.8358 33.8359 13.0574 33.8359 13.3307V19.3409C33.8358 19.6142 33.606 19.8358 33.3225 19.8358Z" fill="white"/>
<path d="M49.0883 57.6716L49.7028 57.3857C55.1626 54.8453 58.6542 49.3696 58.6542 43.3477V38.7105H56.9146C54.0426 38.7105 51.2713 37.6525 49.1299 35.7386L49.0883 35.7015L49.0468 35.7386C46.9054 37.6525 44.134 38.7105 41.2621 38.7105H39.5225V43.3477C39.5225 49.3696 43.014 54.8452 48.4739 57.3857L49.0883 57.6716Z" fill="#4ABF3A"/>
<path d="M49.0884 57.6716L49.7029 57.3857C55.1627 54.8453 58.6543 49.3696 58.6543 43.3477V38.7105H56.9147C54.0427 38.7105 51.2713 37.6525 49.13 35.7386L49.0884 35.7015V57.6716Z" fill="#46AC3B"/>
<path d="M52.884 45.1873H50.5063V42.8096H47.6704V45.1873H45.2927V48.0231H47.6704V50.4009H50.5063V48.0231H52.884V45.1873Z" fill="white"/>
<path d="M52.884 45.1873H50.5063V42.8096H49.0884V50.4009H50.5063V48.0231H52.884V45.1873Z" fill="white"/>
<rect x="18.8359" y="22.8358" width="15.7612" height="2" rx="1" fill="#009CD8"/>
<rect x="36.5972" y="22.8358" width="7.64179" height="2" rx="1" fill="#009CD8"/>
<rect x="18.8359" y="27.8358" width="13.8507" height="2" rx="1" fill="#009CD8"/>
<rect x="36.5972" y="27.8358" width="7.64179" height="2" rx="1" fill="#009CD8"/>
<rect x="18.8359" y="32.8358" width="15.7612" height="2" rx="1" fill="#009CD8"/>
<rect x="36.5972" y="32.8358" width="7.64179" height="2" rx="1" fill="#009CD8"/>
<rect x="18.8359" y="37.8358" width="10.9851" height="2" rx="1" fill="#009CD8"/>
</svg>
