<svg width="64" height="64" viewBox="0 0 64 64" fill="none" xmlns="http://www.w3.org/2000/svg">
<path d="M8.99992 19C8.99992 16.7909 10.7908 15 12.9999 15H50.9999C53.2091 15 54.9999 16.7909 54.9999 19V45C54.9999 47.2091 53.2091 49 50.9999 49H12.9999C10.7908 49 8.99992 47.2091 8.99992 45V19Z" fill="#009CD8"/>
<path d="M31.9999 15H50.9999C53.2091 15 54.9999 16.7909 54.9999 19V45C54.9999 47.2091 53.2091 49 50.9999 49H31.9999V15Z" fill="#11B2EA"/>
<path d="M51.167 25.5833H35.8336V27.5H51.167V25.5833Z" fill="#F4F4F4"/>
<path d="M51.167 30.0555H35.8336V31.9722H51.167V30.0555Z" fill="#F4F4F4"/>
<path d="M24.9719 29.7362C24.9719 32.0296 23.1128 33.8889 20.8191 33.8889C18.5254 33.8889 16.6664 32.0296 16.6664 29.7362C16.6664 27.4426 18.5254 25.5833 20.8191 25.5833C23.1128 25.5833 24.9719 27.4426 24.9719 29.7362Z" fill="white"/>
<path d="M16.6668 21.4307C16.6668 22.6655 15.6657 23.6667 14.4307 23.6667C13.1956 23.6667 12.1945 22.6655 12.1945 21.4307C12.1945 20.1956 13.1956 19.1945 14.4307 19.1945C15.6657 19.1945 16.6668 20.1956 16.6668 21.4307Z" fill="#E8BA69"/>
<path d="M38.0208 35.1667C37.3051 35.1667 36.7689 35.6369 36.5522 36.155C36.3355 36.673 36.3209 37.2307 36.337 37.6942C36.3741 38.7635 36.7897 39.842 37.4023 40.6895C37.4273 40.724 37.4639 40.7429 37.4896 40.7767C37.166 41.0227 36.7995 41.1905 36.337 41.1905C36.2712 41.1895 36.2059 41.2018 36.1449 41.2266C36.0839 41.2514 36.0283 41.2882 35.9815 41.3349C35.9347 41.3817 35.8975 41.4373 35.8721 41.4987C35.8467 41.56 35.8336 41.6259 35.8336 41.6924C35.8336 41.759 35.8467 41.8248 35.8721 41.8862C35.8975 41.9476 35.9347 42.0032 35.9815 42.0499C36.0283 42.0966 36.0839 42.1335 36.1449 42.1583C36.2059 42.1831 36.2712 42.1954 36.337 42.1944C37.0751 42.1944 37.6611 41.8744 38.1681 41.4542C38.6554 41.8733 39.1909 42.1944 39.8111 42.1944C40.4342 42.1944 40.9686 41.9033 41.4367 41.5346C41.8152 41.8989 42.2497 42.1944 42.789 42.1944C43.1584 42.1944 43.4471 42.0587 43.6798 41.8817C43.8231 42.0359 44.0249 42.1944 44.2779 42.1944C44.4018 42.1954 44.5215 42.1495 44.6136 42.0657C44.7057 41.9819 44.7635 41.8663 44.7757 41.7416C44.7878 41.6169 44.7534 41.4922 44.6793 41.3918C44.6051 41.2915 44.4965 41.2228 44.3748 41.1993C44.3617 41.1736 44.3424 41.1376 44.3254 41.0689C44.2822 40.8943 44.2779 40.6885 44.2779 40.6885C44.276 40.5566 44.2229 40.4307 44.1301 40.3381C44.0372 40.2455 43.912 40.1935 43.7816 40.1935C43.6512 40.1935 43.526 40.2455 43.4331 40.3381C43.3402 40.4307 43.2871 40.5566 43.2853 40.6885C43.2853 40.6885 43.2784 40.8347 43.2135 40.9659C43.1487 41.0972 43.1198 41.1905 42.789 41.1905C42.6113 41.1905 42.3707 41.0414 42.1327 40.8326C42.5098 40.3301 42.789 39.771 42.789 39.1825C42.789 38.8608 42.7308 38.5243 42.5389 38.2217C42.347 37.9191 41.9682 37.6766 41.5472 37.6766C41.1263 37.6766 40.7491 37.919 40.5575 38.2217C40.366 38.5245 40.3074 38.8611 40.3074 39.1825C40.3074 39.7329 40.5247 40.2711 40.8193 40.764C40.4952 41.0083 40.1456 41.1905 39.8111 41.1905C39.5227 41.1905 39.1902 41.0108 38.8592 40.7502C38.8902 40.7056 38.9436 40.6803 38.9727 40.6346C39.5294 39.7565 39.7929 38.6778 39.8111 37.6864V37.6854C39.819 37.2522 39.7735 36.6933 39.5329 36.1736C39.2924 35.6539 38.7545 35.1667 38.0208 35.1667ZM38.0208 36.1706C38.3824 36.1706 38.4984 36.3063 38.6344 36.6001C38.7703 36.8938 38.8245 37.339 38.8185 37.6678C38.8038 38.4619 38.5721 39.3533 38.1662 40.0247C37.6933 39.344 37.3572 38.4547 37.3296 37.6589C37.3159 37.2631 37.3529 36.8172 37.4663 36.5462C37.5797 36.2751 37.6515 36.1706 38.0208 36.1706ZM41.5472 38.6806C41.6613 38.6806 41.6565 38.6891 41.7033 38.7629C41.7501 38.8368 41.7964 39.0023 41.7964 39.1825C41.7964 39.3729 41.7076 39.628 41.5734 39.8914C41.474 39.6401 41.3001 39.3778 41.3001 39.1825C41.3001 39.002 41.3465 38.8366 41.3931 38.7629C41.4398 38.6892 41.4332 38.6806 41.5472 38.6806Z" fill="#F4F4F4"/>
<path d="M13.4722 41.316C13.4722 37.9198 16.2254 35.1667 19.6215 35.1667H22.0174C25.4135 35.1667 28.1667 37.9198 28.1667 41.316C28.1667 41.8012 27.7734 42.1945 27.2882 42.1945H14.3507C13.8655 42.1945 13.4722 41.8012 13.4722 41.316Z" fill="white"/>
</svg>
