<svg width="46" height="23" viewBox="0 0 46 23" fill="none" xmlns="http://www.w3.org/2000/svg">
<path fill-rule="evenodd" clip-rule="evenodd" d="M12.2 10.325L22.3 0.225C22.6 -0.075 23.2 -0.075 23.5 0.225L33.6 10.325C33.9 10.625 33.9 11.225 33.6 11.525L25.7 19.425L22.9 16.625L20.1 19.425L12.2 11.525C11.9 11.225 11.9 10.725 12.2 10.325Z" fill="#1A9ED9"/>
<path fill-rule="evenodd" clip-rule="evenodd" d="M0.300003 22.325L10.4 12.225C10.7 11.925 11.3 11.925 11.6 12.225L19.5 20.125L16.7 22.925H0C0 22.625 0.100003 22.425 0.300003 22.325Z" fill="#4ABF3A"/>
<path fill-rule="evenodd" clip-rule="evenodd" d="M35.4 12.125L45.5 22.225C45.7 22.425 45.7 22.625 45.7 22.825H29L26.2 20.025L34.1 12.125C34.6 11.825 35.1 11.825 35.4 12.125Z" fill="#4ABF3A"/>
<path fill-rule="evenodd" clip-rule="evenodd" d="M18 22.925L22.9 17.925L27.9 22.925H18Z" fill="#D6B36A"/>
</svg>
