<svg width="64" height="64" viewBox="0 0 64 64" fill="none" xmlns="http://www.w3.org/2000/svg">
<path d="M52.1233 23.3282H50.6233V18.8355C50.6233 18.0058 49.9514 17.3379 49.1234 17.3379H13.1235C10.6426 17.3379 8.62357 19.3536 8.62357 21.8307V48.7872C8.62357 51.2643 10.6426 53.28 13.1235 53.28H52.1233C52.9513 53.28 53.6233 52.6091 53.6233 51.7824V24.8258C53.6233 23.9962 52.9513 23.3282 52.1233 23.3282Z" fill="#DDDDDD"/>
<path d="M55.1236 41.2993H46.1236C43.6396 41.2993 41.6237 39.2866 41.6237 36.8065C41.6237 34.3235 43.6396 32.3138 46.1236 32.3138H55.1236C55.9516 32.3138 56.6236 32.9847 56.6236 33.8114V39.8017C56.6236 40.6284 55.9516 41.2993 55.1236 41.2993Z" fill="#4ABF3A"/>
<mask id="mask0" mask-type="alpha" maskUnits="userSpaceOnUse" x="11" y="7" width="43" height="17">
<path d="M11.5869 7.28003H53.6607V23.2543H14.0869C12.7062 23.2543 11.5869 22.135 11.5869 20.7543V7.28003Z" fill="#C4C4C4"/>
</mask>
<g mask="url(#mask0)">
<path d="M-2.9111 33.8385C-3.74052 32.4042 -3.24924 30.5707 -1.81379 29.7433L30.9646 10.849C32.4 10.0215 34.2361 10.5135 35.0655 11.9478L43.9137 27.2488C44.7431 28.6831 44.2518 30.5166 42.8164 31.344L9.60482 50.488C8.40861 51.1775 6.87857 50.7675 6.18738 49.5723L-2.9111 33.8385Z" fill="#4ABF3A"/>
<ellipse rx="2.36941" ry="2.36751" transform="matrix(0.866372 -0.499399 0.500602 0.865678 33.3316 23.1481)" fill="#46AC3B"/>
<rect width="42.6494" height="29.5939" rx="5" transform="matrix(0.866372 -0.499399 0.500602 0.865678 5.66068 32.7205)" fill="#11B2EA"/>
<rect width="42.6493" height="7.10253" transform="matrix(0.866372 -0.499399 0.500601 0.865678 8.9202 38.3566)" fill="#009CD8"/>
</g>
<path d="M49.1797 36.9916C49.1797 38.0435 48.3257 38.8965 47.2721 38.8965C46.2185 38.8965 45.3642 38.0435 45.3642 36.9916C45.3642 35.9397 46.2185 35.0871 47.2721 35.0871C48.3257 35.0871 49.1797 35.9397 49.1797 36.9916Z" fill="#DDDDDD"/>
</svg>
